<svg width="386" height="60" viewBox="0 0 386 60" fill="none" xmlns="http://www.w3.org/2000/svg">
<path fill-rule="evenodd" clip-rule="evenodd" d="M191.042 56.6444C188.902 55.2121 186.109 55.2121 183.969 56.6444L183.419 57.0127C177.506 60.9698 163.988 61.0016 157.973 57.0725L157.819 56.972C155.593 55.5176 152.713 55.5336 150.503 57.0127V57.0127C144.59 60.9698 131.072 61.0016 125.057 57.0725L124.051 56.4151C122.084 55.1301 119.54 55.1443 117.587 56.451V56.451C111.675 60.4081 98.1563 60.4399 92.1417 56.5109L91.9878 56.4103C89.7615 54.9559 86.8817 54.972 84.6716 56.451V56.451C78.759 60.4081 65.2406 60.4399 59.226 56.5109V56.5109C56.6746 54.8441 53.5026 54.4312 50.6095 55.3892L49.7971 55.6583C41.1075 58.5357 28.3526 56.6248 25.7886 52.0615V52.0615C24.6323 50.0037 22.4335 48.8053 20.089 48.5322C13.2087 47.7308 8.75501 44.567 11.1897 41.4312V41.4312C12.7536 39.4169 11.7096 36.46 9.22769 35.8742L7.8112 35.5398C-1.81392 33.2679 -2.72694 27.5142 6.0926 24.7097L7.85526 24.1492C9.66973 23.5722 10.2077 21.2651 8.83559 19.945V19.945C4.37658 15.6553 11.7902 10.8329 22.7902 10.868L26.5131 10.8798C28.6036 10.8865 30.534 9.76104 31.5581 7.93847V7.93847C34.1221 3.37515 46.877 1.46433 55.5666 4.34174L56.379 4.61076C59.2721 5.56876 62.4441 5.15585 64.9955 3.48913V3.48913C71.0101 -0.439902 84.5285 -0.408113 90.4412 3.54897V3.54897C92.6512 5.02804 95.531 5.04407 97.7573 3.58969L97.9113 3.48913C103.926 -0.439902 117.444 -0.408113 123.357 3.54897V3.54897C125.309 4.85569 127.854 4.86985 129.821 3.58495L130.827 2.92747C136.842 -1.00156 150.36 -0.969769 156.273 2.98731V2.98731C158.483 4.46638 161.362 4.48241 163.589 3.02804L163.743 2.92747C169.757 -1.00156 183.276 -0.969769 189.188 2.98731L189.739 3.35562C191.879 4.78792 194.672 4.78792 196.812 3.35562V3.35562C202.724 -0.601457 216.243 -0.633246 222.257 3.29578L222.411 3.39637C224.638 4.85073 227.517 4.83469 229.727 3.35562V3.35562C235.64 -0.601457 249.158 -0.633246 255.173 3.29578L256.179 3.95326C258.146 5.23816 260.691 5.224 262.643 3.91728V3.91728C268.556 -0.0398005 282.074 -0.0715899 288.089 3.85744L288.243 3.95801C290.469 5.41238 293.349 5.39635 295.559 3.91728V3.91728C301.472 -0.0398005 314.99 -0.0715899 321.004 3.85744V3.85744C323.556 5.52417 326.728 5.93708 329.621 4.97909L330.433 4.71005C339.123 1.83264 351.878 3.74347 354.442 8.30679V8.30679C355.466 10.1293 357.396 11.2548 359.487 11.2482L363.21 11.2363C374.21 11.2013 381.623 16.0236 377.164 20.3133V20.3133C375.792 21.6333 376.33 23.9402 378.145 24.5172L379.907 25.0777C388.727 27.8823 387.814 33.6359 378.189 35.9079L375.007 36.6589C373.351 37.0498 372.655 39.0227 373.698 40.3667V40.3667C377.157 44.8213 368.677 49.3127 357.738 48.8209L354.136 48.659C351.888 48.5579 349.775 49.7315 348.672 51.6932V51.6932C346.108 56.2565 333.353 58.1674 324.664 55.2899L323.851 55.0209C320.958 54.0629 317.786 54.4758 315.235 56.1426V56.1426C309.22 60.0716 295.702 60.0398 289.789 56.0827V56.0827C287.579 54.6036 284.7 54.5876 282.473 56.042L282.319 56.1426C276.305 60.0716 262.786 60.0398 256.874 56.0827V56.0827C254.921 54.776 252.377 54.7618 250.41 56.0467L249.403 56.7042C243.389 60.6332 229.871 60.6015 223.958 56.6444V56.6444C221.748 55.1653 218.868 55.1493 216.642 56.6037L216.488 56.7042C210.473 60.6332 196.955 60.6015 191.042 56.6444V56.6444ZM164.845 3.23457C170.337 -0.35281 182.68 -0.323785 188.078 3.2892L192.289 6.10769C192.311 6.1223 192.338 6.12673 192.364 6.11984L192.614 6.05167C192.667 6.03734 192.699 6.10789 192.654 6.13827V6.13827C192.619 6.16127 192.628 6.21402 192.668 6.22487L193.485 6.44707C193.607 6.48006 193.736 6.45885 193.841 6.38893L197.922 3.65751C203.32 0.0445269 215.663 0.0155024 221.155 3.60288L225.452 6.40989C225.672 6.55385 225.944 6.59589 226.198 6.52525L226.383 6.4736C226.42 6.46319 226.46 6.46307 226.497 6.47325V6.47325C226.557 6.48961 226.622 6.47908 226.674 6.4444L226.8 6.35947C226.804 6.35701 226.808 6.35515 226.812 6.35396L226.882 6.33463C226.889 6.33255 226.891 6.32264 226.884 6.3184V6.3184C226.879 6.31487 226.879 6.30697 226.884 6.30337L230.838 3.65751C236.236 0.0445269 248.579 0.0155024 254.071 3.60288L258.544 6.52518C258.593 6.55688 258.593 6.62784 258.545 6.66008V6.66008C258.487 6.69866 258.502 6.78712 258.569 6.80532L259.317 7.00873C259.438 7.04172 259.568 7.02051 259.672 6.95059L263.753 4.21917C269.152 0.606183 281.495 0.577159 286.986 4.16453L291.283 6.97155C291.504 7.11551 291.775 7.15754 292.029 7.08691L292.214 7.03526C292.252 7.02485 292.291 7.02473 292.329 7.0349V7.0349C292.389 7.05126 292.453 7.04074 292.505 7.00607L292.632 6.92114C292.636 6.91868 292.64 6.91682 292.644 6.91563L292.713 6.89629C292.721 6.89421 292.722 6.8843 292.716 6.88006V6.88006C292.71 6.87652 292.71 6.86862 292.716 6.86502L296.669 4.21917C302.068 0.606183 314.411 0.577159 319.902 4.16453L324.42 7.11568C324.5 7.16803 324.599 7.18331 324.691 7.15763L324.726 7.14782C324.787 7.13079 324.853 7.13836 324.908 7.16893V7.16893C324.967 7.20145 325.037 7.20787 325.101 7.18664L331.241 5.15373C339.175 2.52653 350.82 4.27119 353.162 8.4377L354.951 11.623C355.067 11.8282 355.293 11.9454 355.527 11.9215L356.416 11.8306C356.419 11.8303 356.42 11.8274 356.419 11.8251V11.8251C356.417 11.8226 356.419 11.8196 356.422 11.8196L363.22 11.7979C373.263 11.7659 380.032 16.1689 375.961 20.0857L372.627 23.2932C372.581 23.337 372.604 23.414 372.666 23.4257L372.821 23.4549C372.839 23.4583 372.843 23.4825 372.827 23.4917V23.4917C372.812 23.5003 372.814 23.5226 372.831 23.5279L379.121 25.528C387.173 28.0887 386.34 33.3421 377.551 35.4164L370.216 37.1478C370.178 37.1569 370.167 37.2066 370.198 37.2308V37.2308C370.231 37.2562 370.217 37.3088 370.176 37.3146L370.1 37.3254C370.04 37.3339 370.011 37.4045 370.049 37.4526L372.448 40.5433C375.606 44.6105 367.864 48.7114 357.876 48.2624L349.509 47.8862C349.463 47.8841 349.422 47.9148 349.41 47.9595L349.393 48.0306C349.391 48.0366 349.386 48.0405 349.38 48.0399V48.0399C349.375 48.0394 349.37 48.0418 349.368 48.0461L347.392 51.5623C345.051 55.7288 333.405 57.4735 325.471 54.8463L319.332 52.8134C319.268 52.7921 319.198 52.7985 319.139 52.8311V52.8311C319.083 52.8616 319.018 52.8692 318.957 52.8522L318.921 52.8424C318.829 52.8167 318.73 52.832 318.65 52.8843L314.133 55.8355C308.641 59.4228 296.298 59.3938 290.9 55.7808L286.946 53.135C286.941 53.1314 286.941 53.1235 286.946 53.1199V53.1199C286.953 53.1157 286.951 53.1058 286.944 53.1037L286.874 53.0844C286.87 53.0832 286.866 53.0813 286.862 53.0789L286.735 52.9939C286.684 52.9593 286.619 52.9487 286.559 52.9651V52.9651C286.522 52.9753 286.482 52.9752 286.445 52.9647L286.259 52.9131C286.006 52.8425 285.734 52.8845 285.514 53.0285L281.217 55.8355C275.725 59.4228 263.382 59.3938 257.984 55.7808L253.903 53.0494C253.798 52.9795 253.668 52.9583 253.547 52.9913L252.799 53.1947C252.732 53.2129 252.718 53.3013 252.775 53.3399V53.3399C252.823 53.3722 252.823 53.4431 252.775 53.4748L248.301 56.3971C242.81 59.9845 230.467 59.9555 225.068 56.3425L221.115 53.6966C221.109 53.693 221.109 53.6851 221.115 53.6816V53.6816C221.121 53.6774 221.12 53.6675 221.112 53.6654L221.043 53.646C221.039 53.6449 221.035 53.643 221.031 53.6405L220.904 53.5556C220.852 53.5209 220.788 53.5104 220.728 53.5268V53.5268C220.69 53.5369 220.651 53.5368 220.613 53.5264L220.428 53.4748C220.174 53.4041 219.903 53.4462 219.682 53.5901L215.385 56.3971C209.894 59.9845 197.551 59.9555 192.152 56.3425L188.071 53.6111C187.967 53.5411 187.837 53.5199 187.716 53.5529L186.898 53.7751C186.859 53.786 186.85 53.8387 186.884 53.8617V53.8617C186.93 53.8921 186.898 53.9626 186.845 53.9483L186.594 53.8802C186.569 53.8733 186.542 53.8777 186.52 53.8923L182.309 56.7108C176.91 60.3238 164.567 60.3528 159.076 56.7654L154.779 53.9584C154.558 53.8145 154.287 53.7724 154.033 53.8431L153.848 53.8947C153.81 53.9051 153.771 53.9052 153.733 53.8951V53.8951C153.673 53.8787 153.609 53.8892 153.557 53.9239L153.43 54.0088C153.426 54.0113 153.422 54.0132 153.418 54.0143L153.349 54.0337C153.341 54.0358 153.34 54.0457 153.346 54.0499V54.0499C153.352 54.0534 153.352 54.0613 153.346 54.0649L149.393 56.7108C143.994 60.3238 131.651 60.3528 126.16 56.7654L121.686 53.8431C121.638 53.8114 121.637 53.7405 121.686 53.7082V53.7082C121.743 53.6697 121.729 53.5812 121.662 53.563L120.914 53.3596C120.792 53.3266 120.663 53.3478 120.558 53.4177L116.477 56.1491C111.079 59.7621 98.7357 59.7912 93.2442 56.2038L88.9472 53.3968C88.7268 53.2528 88.4551 53.2108 88.2015 53.2814L88.0161 53.3331C87.9787 53.3435 87.9393 53.3436 87.9018 53.3334V53.3334C87.8417 53.3171 87.7774 53.3276 87.7255 53.3622L87.5986 53.4472C87.5949 53.4496 87.5909 53.4515 87.5866 53.4527L87.5172 53.472C87.5098 53.4741 87.5082 53.484 87.5147 53.4883V53.4883C87.5201 53.4918 87.5202 53.4997 87.5148 53.5033L83.5614 56.1491C78.1629 59.7621 65.82 59.7912 60.3284 56.2038L55.8108 53.2526C55.7307 53.2003 55.6319 53.185 55.5397 53.2107L55.5045 53.2205C55.4433 53.2375 55.378 53.2299 55.3223 53.1994V53.1994C55.2632 53.1669 55.1931 53.1604 55.129 53.1817L48.9897 55.2146C41.0558 57.8418 29.41 56.0971 27.0689 51.9306L25.1703 48.5515C25.1211 48.464 25.0247 48.414 24.9249 48.4242L24.8623 48.4306C24.7707 48.44 24.6866 48.3792 24.6667 48.2893V48.2893C24.6478 48.2035 24.5691 48.1438 24.4814 48.1468C16.1556 48.4367 9.80272 45.0039 12.4395 41.6078L15.9515 37.0844C15.9889 37.0363 15.9603 36.9657 15.8999 36.9572L15.8239 36.9465C15.7827 36.9406 15.7688 36.8881 15.8018 36.8627V36.8627C15.8331 36.8386 15.8224 36.7889 15.7839 36.7798L8.44862 35.0484C-0.339503 32.974 -1.17312 27.7207 6.8795 25.16L13.1693 23.1599C13.1858 23.1546 13.1882 23.1322 13.1731 23.1235V23.1235C13.157 23.1143 13.1611 23.0901 13.1794 23.0866L13.3336 23.0574C13.3958 23.0457 13.4187 22.9686 13.3732 22.9248L10.0392 19.7174C5.96793 15.8006 12.7369 11.3976 22.7803 11.4296L29.578 11.4513C29.5808 11.4513 29.5826 11.4543 29.5812 11.4568V11.4568C29.5799 11.4591 29.5814 11.462 29.584 11.4623L30.4735 11.5532C30.7075 11.5771 30.9334 11.46 31.0486 11.2549L32.8384 8.06939C35.1795 3.90288 46.8253 2.15821 54.7593 4.78541L60.8986 6.81833C60.9627 6.83956 61.0327 6.83314 61.0919 6.80062V6.80062C61.1475 6.77006 61.2129 6.76248 61.274 6.77951L61.3092 6.78932C61.4014 6.815 61.5002 6.79972 61.5803 6.74738L66.0979 3.79622C71.5895 0.208846 83.9324 0.237871 89.3309 3.85086L93.2843 6.49672C93.2897 6.50031 93.2896 6.50822 93.2842 6.51175V6.51175C93.2778 6.51599 93.2793 6.52589 93.2868 6.52797L93.3562 6.54731C93.3604 6.54849 93.3645 6.55035 93.3681 6.55281L93.4951 6.63776C93.5469 6.67243 93.6112 6.68295 93.6713 6.66659V6.66659C93.7088 6.65641 93.7483 6.65654 93.7856 6.66694L93.971 6.71859C94.2246 6.78923 94.4963 6.7472 94.7167 6.60324L99.0137 3.79622C104.505 0.208846 116.848 0.237871 122.247 3.85086L126.328 6.58228C126.432 6.65219 126.562 6.6734 126.683 6.64042L127.431 6.437C127.498 6.41881 127.513 6.33034 127.455 6.29177V6.29177C127.407 6.25953 127.407 6.18857 127.456 6.15687L131.929 3.23457C137.421 -0.35281 149.764 -0.323785 155.162 3.2892L159.116 5.93506C159.121 5.93865 159.121 5.94656 159.116 5.95009V5.95009C159.109 5.95433 159.111 5.96424 159.118 5.96632L159.188 5.98565C159.192 5.98684 159.196 5.9887 159.2 5.99116L159.327 6.0761C159.378 6.11078 159.443 6.12129 159.503 6.10494V6.10494C159.54 6.09476 159.58 6.09488 159.617 6.10529L159.802 6.15694C160.056 6.22757 160.328 6.18554 160.548 6.04158L164.845 3.23457Z" fill="#3D8BE0"/>
<path d="M37.858 39H41.312L41.092 30.552L41.268 25.162V21.752L41.07 21.664L38.738 23.842L38.122 21.774L37.66 21.84L38.078 30.684L37.858 39ZM48.4759 25.338C47.5739 26.108 46.8039 26.79 45.8359 27.758C43.9439 29.628 42.3599 31.74 42.3599 33.742C42.3599 36.668 44.7139 38.34 47.9919 39.33C49.8399 38.406 53.6239 37.108 53.6239 34.05C53.6239 30.508 48.3219 28.176 48.3219 26.988C48.3219 26.614 48.5859 26.372 49.0699 25.954L48.4759 25.338ZM45.2419 31.19C45.2419 30.53 45.3079 29.848 45.5499 29.188C48.4539 31.278 50.4559 33.61 50.4559 35.766C50.4559 36.492 50.3019 37.042 50.1259 37.416C46.6719 35.744 45.2419 34.006 45.2419 31.19ZM64.0569 39.418C64.0569 38.45 63.0009 37.658 61.7689 36.976L61.8129 34.292C61.8569 31.982 63.1769 31.498 63.1769 29.98C63.1769 28.088 61.2629 25.954 58.6449 25.954C56.1369 25.954 54.0249 27.802 54.0249 30.354C54.0249 32.51 56.0929 33.676 57.3909 34.006C55.8289 34.754 54.9929 35.414 54.9929 36.096C54.9929 36.536 55.4549 37.02 56.1369 37.504C54.4869 38.758 53.3649 39.814 53.3649 41.134C53.3649 42.52 54.8609 43.092 56.5109 43.092C60.1189 43.092 64.0569 41.42 64.0569 39.418ZM56.0489 28.11C56.0489 27.714 56.2689 27.362 56.7749 27.362C58.8649 27.362 60.6469 30.178 60.9769 32.576C57.8969 32.07 56.0489 29.936 56.0489 28.11ZM58.0729 34.6C58.0729 33.984 59.4809 33.698 61.0429 33.082C61.1309 34.226 61.1529 35.7 61.1749 36.668C59.6349 35.876 58.0729 35.216 58.0729 34.6ZM55.0149 39.44C55.0149 38.978 55.5209 38.648 57.1269 38.12C58.9309 39.198 61.2629 40.254 61.2629 41.046C61.2629 41.288 61.1749 41.53 59.9869 41.53C57.2809 41.53 55.0149 40.518 55.0149 39.44ZM72.3867 19.97C72.2327 19.794 71.9027 19.684 71.5947 19.728L71.1987 21.554C70.4067 21.554 69.3727 21.532 68.2947 22.06C67.9647 23.996 69.1307 25.8 70.8027 25.8C71.2207 24.26 71.9907 21.422 72.3867 19.97ZM72.1227 39C72.1227 34.974 72.0127 30.948 71.7927 26.966L68.2947 27.538L69.0207 32.356L68.5807 39H72.1227ZM73.8868 39H77.4288L77.3628 35.502C77.3628 30.816 77.9788 28.066 79.3208 28.066C79.9808 28.066 80.7068 29.056 80.9928 30.134L80.5748 39H84.1168L83.8748 32.928C83.8308 31.828 84.3368 29.76 84.6668 28.858C83.7648 26.878 82.3348 25.91 81.0588 25.91C79.7608 25.91 78.3088 26.746 77.2308 29.166L77.2088 28.176L77.0328 26.086L73.4468 26.658L74.1728 32.158L73.8868 39ZM93.0192 39.11H94.1192C96.1652 38.032 98.2992 36.646 99.6632 34.6C99.6852 34.688 99.7072 34.754 99.7292 34.842L100.103 37.086L100.213 39.11H101.313C105.361 37.064 108.265 34.248 108.265 29.826C108.265 26.9 106.571 25.8 104.811 25.8C103.249 25.8 102.193 26.68 101.005 28.836C100.653 26.658 99.1572 25.8 97.6172 25.8C96.0992 25.8 95.0652 26.636 93.8992 28.66C93.5692 27.67 93.1952 26.702 92.7332 25.734L88.4872 26.218V27.362L89.7852 27.186L90.4012 28.198C91.3472 30.244 91.9852 32.796 92.5792 34.842L92.8872 36.712L93.0192 39.11ZM95.8572 28.814C97.5732 28.814 99.4872 30.31 99.4872 32.444C99.4872 34.072 98.0792 35.128 95.9012 35.854C95.3512 33.742 94.8452 31.586 94.1852 29.474C94.4932 29.034 95.0212 28.814 95.8572 28.814ZM103.051 28.814C104.767 28.814 106.681 30.31 106.681 32.444C106.681 34.072 105.273 35.128 103.117 35.854C102.633 33.544 102.039 31.432 101.313 29.54C101.621 29.056 102.171 28.814 103.051 28.814ZM113.379 19.97C113.225 19.794 112.895 19.684 112.587 19.728L112.191 21.554C111.399 21.554 110.365 21.532 109.287 22.06C108.957 23.996 110.123 25.8 111.795 25.8C112.213 24.26 112.983 21.422 113.379 19.97ZM113.115 39C113.115 34.974 113.005 30.948 112.785 26.966L109.287 27.538L110.013 32.356L109.573 39H113.115ZM123.968 35.612L123.418 35.194C122.494 36.404 121.79 36.734 121.042 36.734C119.942 36.734 119.106 36.074 119.128 34.468L119.238 28.528H123.308C123.506 27.802 123.704 26.9 123.77 26.394H119.238L119.194 23.556L118.798 23.49L114.2 27.516V27.934L116.026 28.418L116.268 32.466L115.872 35.568C115.586 37.878 117.632 39.286 119.37 39.286C121.02 39.286 122.274 38.428 123.968 35.612ZM124.977 39H128.431L128.321 34.908C128.387 30.574 129.003 28.066 130.279 28.066C130.939 28.066 131.665 29.056 131.951 30.134L131.533 39H135.075L134.833 32.928C134.789 31.828 135.295 29.76 135.625 28.858C134.723 26.878 133.293 25.91 132.017 25.91C130.741 25.91 129.333 26.702 128.255 28.99L128.387 25.162V21.752L128.189 21.664L125.857 23.842L125.241 21.774L124.779 21.84L125.197 30.684L124.977 39ZM152.846 34.468C152.846 32.862 151.9 31.674 150.602 30.706C150.888 29.232 152.318 27.604 152.318 25.866C152.318 23.71 149.766 22.214 147.016 22.214C143.254 22.214 141.362 24.458 141.362 26.856C141.362 28.814 142.264 30.112 143.54 31.08C141.34 32.532 140.306 34.028 140.306 35.678C140.306 37.922 142.748 39.286 146.708 39.286C150.426 39.286 152.846 37.79 152.846 34.468ZM142.968 25.47C142.968 24.678 143.452 24.084 144.728 24.084C147.83 24.084 150.03 26.262 149.92 30.244C147.016 28.396 142.968 27.384 142.968 25.47ZM142.242 33.962C142.242 33.192 143.078 32.51 145.586 32.312C148.16 33.588 150.976 34.314 150.976 36.228C150.976 37.13 150.25 37.57 148.842 37.57C146.092 37.57 142.242 35.546 142.242 33.962ZM153.797 39.308C154.303 39.286 154.787 39.286 155.249 39.242C155.205 40.144 155.139 41.134 155.095 41.86H153.687V42.85H161.915V41.86H158.571L158.505 38.824C163.103 37.878 165.611 35.48 165.611 31.124C165.611 27.516 164.159 25.954 162.245 25.954C160.859 25.954 159.473 26.988 158.285 28.484V25.756L153.775 26.24V27.384L154.963 27.23C155.205 30.156 155.271 32.73 155.271 36.734L153.797 39.308ZM160.353 27.934C161.519 27.934 162.091 29.188 162.091 32.664C162.091 36.58 161.233 37.504 159.847 37.504C159.407 37.504 158.945 37.416 158.461 37.284L158.395 34.556C158.505 29.1 159.649 27.934 160.353 27.934ZM172.527 25.338C171.625 26.108 170.855 26.79 169.887 27.758C167.995 29.628 166.411 31.74 166.411 33.742C166.411 36.668 168.765 38.34 172.043 39.33C173.891 38.406 177.675 37.108 177.675 34.05C177.675 30.508 172.373 28.176 172.373 26.988C172.373 26.614 172.637 26.372 173.121 25.954L172.527 25.338ZM169.293 31.19C169.293 30.53 169.359 29.848 169.601 29.188C172.505 31.278 174.507 33.61 174.507 35.766C174.507 36.492 174.353 37.042 174.177 37.416C170.723 35.744 169.293 34.006 169.293 31.19ZM187.368 35.612L186.818 35.194C185.894 36.404 185.19 36.734 184.442 36.734C183.342 36.734 182.506 36.074 182.528 34.468L182.638 28.528H186.708C186.906 27.802 187.104 26.9 187.17 26.394H182.638L182.594 23.556L182.198 23.49L177.6 27.516V27.934L179.426 28.418L179.668 32.466L179.272 35.568C178.986 37.878 181.032 39.286 182.77 39.286C184.42 39.286 185.674 38.428 187.368 35.612ZM192.184 19.97C192.03 19.794 191.7 19.684 191.392 19.728L190.996 21.554C190.204 21.554 189.17 21.532 188.092 22.06C187.762 23.996 188.928 25.8 190.6 25.8C191.018 24.26 191.788 21.422 192.184 19.97ZM191.92 39C191.92 35.326 191.832 31.366 191.656 27.67H192.998C193.284 30.156 196.452 31.3 196.452 33.368C196.452 34.798 194.384 36.184 194.384 38.78C194.384 40.694 195.55 41.992 197.794 43.092L198.3 42.322C196.364 41.31 195.462 40.21 195.462 38.934C195.462 35.414 199.664 33.72 199.664 31.366C199.664 30.024 198.19 28.792 196.958 27.67H199.994V26.614H195.902C195.528 26.174 195.286 25.756 195.286 25.36C195.286 24.634 195.748 24.04 196.76 24.04C198.146 24.04 200.39 24.832 200.478 26.328L200.544 27.384H201.094C201.116 26.878 201.138 26.372 201.38 25.8C201.71 25.052 202.546 24.37 202.546 23.446C202.546 22.544 201.27 21.774 199.752 21.774C196.518 21.774 193.724 24.722 193.108 26.614H191.59L188.092 27.186L188.818 32.356L188.378 39H191.92ZM210.565 39.968C210.565 38.736 209.861 37.812 208.893 37.174L208.431 37.57C208.981 38.01 209.223 38.362 209.223 38.67C209.223 39.792 205.901 41.09 202.821 41.09C202.315 41.09 202.007 40.936 202.007 40.584C202.007 38.362 211.203 37.394 211.203 30.09C211.203 27.34 209.663 25.8 207.749 25.8C206.231 25.8 205.175 26.768 204.229 28.484C203.877 27.582 203.503 26.658 203.063 25.734L198.553 26.988V28.132L200.511 27.516L200.951 28.198C201.853 30.398 202.425 32.356 203.019 34.468L203.239 35.722C201.677 36.646 200.621 37.812 200.621 39.44C200.621 41.706 203.305 43.092 206.363 43.092C208.915 43.092 210.565 41.728 210.565 39.968ZM205.769 28.902C207.441 28.902 209.487 30.156 209.487 32.554C209.487 34.204 208.101 35.04 206.341 35.414C205.769 33.324 205.219 31.3 204.493 29.254C204.801 29.034 205.219 28.902 205.769 28.902ZM225.546 35.612L224.996 35.194C224.072 36.404 223.368 36.734 222.62 36.734C221.52 36.734 220.684 36.074 220.706 34.468L220.816 28.528H224.886C225.084 27.802 225.282 26.9 225.348 26.394H220.816L220.772 23.556L220.376 23.49L215.778 27.516V27.934L217.604 28.418L217.846 32.466L217.45 35.568C217.164 37.878 219.21 39.286 220.948 39.286C222.598 39.286 223.852 38.428 225.546 35.612ZM231.824 25.338C230.922 26.108 230.152 26.79 229.184 27.758C227.292 29.628 225.708 31.74 225.708 33.742C225.708 36.668 228.062 38.34 231.34 39.33C233.188 38.406 236.972 37.108 236.972 34.05C236.972 30.508 231.67 28.176 231.67 26.988C231.67 26.614 231.934 26.372 232.418 25.954L231.824 25.338ZM228.59 31.19C228.59 30.53 228.656 29.848 228.898 29.188C231.802 31.278 233.804 33.61 233.804 35.766C233.804 36.492 233.65 37.042 233.474 37.416C230.02 35.744 228.59 34.006 228.59 31.19ZM245.322 39.11H246.422C250.14 37.218 253.374 34.204 253.374 29.826C253.374 26.9 251.68 25.8 249.92 25.8C248.402 25.8 247.368 26.636 246.202 28.66C245.872 27.67 245.498 26.702 245.036 25.734L240.79 26.218V27.362L242.088 27.186L242.704 28.198C243.65 30.244 244.288 32.796 244.882 34.842L245.19 36.712L245.322 39.11ZM248.16 28.814C249.876 28.814 251.79 30.31 251.79 32.444C251.79 34.072 250.382 35.128 248.204 35.854C247.654 33.742 247.148 31.586 246.488 29.474C246.796 29.034 247.324 28.814 248.16 28.814ZM258.506 19.97C258.352 19.794 258.022 19.684 257.714 19.728L257.318 21.554C256.526 21.554 255.492 21.532 254.414 22.06C254.084 23.996 255.25 25.8 256.922 25.8C257.34 24.26 258.11 21.422 258.506 19.97ZM258.242 39C258.242 34.974 258.132 30.948 257.912 26.966L254.414 27.538L255.14 32.356L254.7 39H258.242ZM268.237 35.348C264.475 34.732 262.209 33.94 261.131 32.928L268.721 30.948L268.545 29.98L267.973 30.134C266.873 29.254 266.389 28.242 266.389 27.384C266.389 26.658 266.719 26.02 267.335 25.624L266.807 25.03L265.751 25.954C262.209 25.954 259.503 28.418 259.503 31.762C259.503 35.524 261.989 37.922 267.489 39.286L268.237 35.348ZM260.361 31.3C260.361 29.936 261.373 28.968 262.869 28.968C263.177 28.968 263.507 29.012 263.859 29.1C263.903 29.87 264.101 30.42 264.562 31.036L260.514 32.092C260.405 31.828 260.361 31.564 260.361 31.3ZM272.8 39.11H273.9C275.946 38.032 278.08 36.646 279.444 34.6C279.466 34.688 279.488 34.754 279.51 34.842L279.884 37.086L279.994 39.11H281.094C285.142 37.064 288.046 34.248 288.046 29.826C288.046 26.9 286.352 25.8 284.592 25.8C283.03 25.8 281.974 26.68 280.786 28.836C280.434 26.658 278.938 25.8 277.398 25.8C275.88 25.8 274.846 26.636 273.68 28.66C273.35 27.67 272.976 26.702 272.514 25.734L268.268 26.218V27.362L269.566 27.186L270.182 28.198C271.128 30.244 271.766 32.796 272.36 34.842L272.668 36.712L272.8 39.11ZM275.638 28.814C277.354 28.814 279.268 30.31 279.268 32.444C279.268 34.072 277.86 35.128 275.682 35.854C275.132 33.742 274.626 31.586 273.966 29.474C274.274 29.034 274.802 28.814 275.638 28.814ZM282.832 28.814C284.548 28.814 286.462 30.31 286.462 32.444C286.462 34.072 285.054 35.128 282.898 35.854C282.414 33.544 281.82 31.432 281.094 29.54C281.402 29.056 281.952 28.814 282.832 28.814ZM302.712 39.968C302.712 38.736 302.008 37.812 301.04 37.174L300.578 37.57C301.128 38.01 301.37 38.362 301.37 38.67C301.37 39.792 298.048 41.09 294.968 41.09C294.462 41.09 294.154 40.936 294.154 40.584C294.154 38.362 303.35 37.394 303.35 30.09C303.35 27.34 301.81 25.8 299.896 25.8C298.378 25.8 297.322 26.768 296.376 28.484C296.024 27.582 295.65 26.658 295.21 25.734L290.7 26.988V28.132L292.658 27.516L293.098 28.198C294 30.398 294.572 32.356 295.166 34.468L295.386 35.722C293.824 36.646 292.768 37.812 292.768 39.44C292.768 41.706 295.452 43.092 298.51 43.092C301.062 43.092 302.712 41.728 302.712 39.968ZM297.916 28.902C299.588 28.902 301.634 30.156 301.634 32.554C301.634 34.204 300.248 35.04 298.488 35.414C297.916 33.324 297.366 31.3 296.64 29.254C296.948 29.034 297.366 28.902 297.916 28.902ZM310.263 25.338C309.361 26.108 308.591 26.79 307.623 27.758C305.731 29.628 304.147 31.74 304.147 33.742C304.147 36.668 306.501 38.34 309.779 39.33C311.627 38.406 315.411 37.108 315.411 34.05C315.411 30.508 310.109 28.176 310.109 26.988C310.109 26.614 310.373 26.372 310.857 25.954L310.263 25.338ZM307.029 31.19C307.029 30.53 307.095 29.848 307.337 29.188C310.241 31.278 312.243 33.61 312.243 35.766C312.243 36.492 312.089 37.042 311.913 37.416C308.459 35.744 307.029 34.006 307.029 31.19ZM316.357 36.8C316.357 37.68 317.963 39.286 319.239 39.286C320.493 39.286 321.945 38.318 323.089 36.69V37.064L323.243 39.462L326.851 38.714C326.367 35.392 326.103 31.41 326.103 29.738C326.103 28.176 326.345 26.812 326.411 25.954L322.869 26.306L323.001 32.488C322.935 35.546 322.275 37.328 320.955 37.328C320.383 37.328 319.811 36.272 319.525 35.106L319.943 25.954L316.401 26.306L316.643 32.312C316.643 33.896 316.357 35.282 316.357 36.8ZM328.35 39.22L331.848 39L331.782 37.724C331.782 31.058 332.464 28.264 333.74 28.264C334.356 28.264 335.368 28.946 335.368 33.148H336.006C336.006 28.792 337.964 28.352 337.964 27.098C337.964 25.888 336.6 24.898 335.566 24.898C334.246 24.898 332.662 26.372 331.386 30.09L331.276 27.846L331.122 25.448L327.624 26.196L328.724 35.15L328.35 39.22ZM347.172 35.304C347.172 33.962 346.248 32.994 345.06 32.202C345.566 31.212 346.512 30.442 346.512 28.902C346.512 27.45 344.774 25.954 342.42 25.954C339.934 25.954 337.976 27.736 337.976 29.738C337.976 31.388 338.834 32.444 339.978 33.258C338.416 34.248 337.316 35.282 337.316 36.8C337.316 38.032 338.526 39.286 341.65 39.286C344.554 39.286 347.172 37.658 347.172 35.304ZM339.538 28.418C339.538 27.934 339.758 27.582 340.748 27.582C342.464 27.582 344.356 29.254 344.4 31.806C342.2 30.574 339.538 29.782 339.538 28.418ZM339.208 35.216C339.208 34.688 339.56 34.314 341.848 34.336C343.564 35.172 345.17 35.81 345.17 37.02C345.17 37.416 344.906 37.614 344.378 37.614C342.332 37.614 339.208 36.294 339.208 35.216Z" fill="black"/>
</svg>
